# xmcd
#
# Track frame offsets:
#	150
#	14270
#	33586
#	50622
#	67284
#	85235
#	99933
#	115975
#	132809
#	147229
#	166163
#	180342
#	195787
#	211199
#	225480
#	241260
#	257630
#	274270
#	289333
#	310103
#
# Disc length: 4392 seconds
#
# Revision: 0
# Processed by: cddbd v1.5.2PL0 Copyright (c) Steve Scherf et al.
# Submitted via: audiograbber 1.83.01
#
DISCID=13112614
DTITLE=Various Artist - Bravo Hits 70 - CD 2
DYEAR=1900
DGENRE=Pop
TTITLE0=Taio Cruz feat. Ludacris - Break Your Heart
TTITLE1=OneRepublic - Marchin On
TTITLE2=Mike Posner - Cooler Than Me
TTITLE3=Jason Derulo - Ridin' Solo
TTITLE4=Katy Perry feat. Snoop Dogg - California Girls
TTITLE5=Medina - Lonely
TTITLE6=Travie McCoy - Billionaire
TTITLE7=Monrose - This Is Me
TTITLE8=Velile Mchunu feat. Safri Duo - Helele
TTITLE9=Eminem - Not Afraid
TTITLE10=David Guetta - Gettin' Over You
TTITLE11=Christina Stürmer - Wir leben den Moment
TTITLE12=Kylie Minogue - All The Lovers
TTITLE13=Avicii and Sebastien - Drums My Feelings For You
TTITLE14=Rihanna - Te amo
TTITLE15=Maroon 5 - Misery
TTITLE16=Kelly Rowland - Commander
TTITLE17=Jason Derulo - In My Head
TTITLE18=30 Sweconds To Mars - Closer To The Edge
TTITLE19=Brandon Flowers - Crossfire
EXTD=
EXTT0=
EXTT1=
EXTT2=
EXTT3=
EXTT4=
EXTT5=
EXTT6=
EXTT7=
EXTT8=
EXTT9=
EXTT10=
EXTT11=
EXTT12=
EXTT13=
EXTT14=
EXTT15=
EXTT16=
EXTT17=
EXTT18=
EXTT19=
PLAYORDER=
